<?xml version="1.0" encoding="UTF-8" standalone="no"?>
<!DOCTYPE svg PUBLIC "-//W3C//DTD SVG 1.1//EN"
 "http://www.w3.org/Graphics/SVG/1.1/DTD/svg11.dtd">
<!-- Generated by graphviz version 2.42.4 (0)
 -->
<!-- Title: G Pages: 1 -->
<svg width="866pt" height="941pt"
 viewBox="0.00 0.00 865.64 940.51" xmlns="http://www.w3.org/2000/svg" xmlns:xlink="http://www.w3.org/1999/xlink">
<g id="graph0" class="graph" transform="scale(1 1) rotate(0) translate(4 936.51)">
<title>G</title><style>.edge>path:hover{stroke-width:8}</style>
<polygon fill="white" stroke="transparent" points="-4,4 -4,-936.51 861.64,-936.51 861.64,4 -4,4"/>
<!-- matplotlib -->
<g id="node1" class="node">
<title>matplotlib</title><style>.edge>path:hover{stroke-width:8}</style>
<polygon fill="blue" stroke="black" points="829.14,-634.87 826.14,-638.87 805.14,-638.87 802.14,-634.87 762.14,-634.87 762.14,-598.87 829.14,-598.87 829.14,-634.87"/>
<text text-anchor="middle" x="795.64" y="-614.37" font-family="Helvetica,sans-Serif" font-size="10.00" fill="white">matplotlib</text>
</g>
<!-- wav_to_freq_reporting_plots -->
<g id="node15" class="node">
<title>wav_to_freq_reporting_plots</title><style>.edge>path:hover{stroke-width:8}</style>
<ellipse fill="#7d2493" stroke="black" cx="394.64" cy="-279.83" rx="56.64" ry="28.98"/>
<text text-anchor="middle" x="394.64" y="-288.33" font-family="Helvetica,sans-Serif" font-size="10.00" fill="#ffffff">wav_to_freq.</text>
<text text-anchor="middle" x="394.64" y="-277.33" font-family="Helvetica,sans-Serif" font-size="10.00" fill="#ffffff">reporting.</text>
<text text-anchor="middle" x="394.64" y="-266.33" font-family="Helvetica,sans-Serif" font-size="10.00" fill="#ffffff">plots</text>
</g>
<!-- matplotlib&#45;&gt;wav_to_freq_reporting_plots -->
<g id="edge1" class="edge">
<title>matplotlib&#45;&gt;wav_to_freq_reporting_plots</title><style>.edge>path:hover{stroke-width:8}</style>
<path fill="none" stroke="black" d="M802.17,-598.8C813.98,-564.76 834.59,-487.53 799.64,-438.8 747.96,-366.73 686.85,-420.16 610.64,-374.81"/>
</g>
<!-- numpy -->
<g id="node2" class="node">
<title>numpy</title><style>.edge>path:hover{stroke-width:8}</style>
<polygon fill="blue" stroke="black" points="664.64,-932.51 661.64,-936.51 640.64,-936.51 637.64,-932.51 610.64,-932.51 610.64,-896.51 664.64,-896.51 664.64,-932.51"/>
<text text-anchor="middle" x="637.64" y="-912.01" font-family="Helvetica,sans-Serif" font-size="10.00" fill="white">numpy</text>
</g>
<!-- numpy&#45;&gt;matplotlib -->
<g id="edge2" class="edge">
<title>numpy&#45;&gt;matplotlib</title><style>.edge>path:hover{stroke-width:8}</style>
<path fill="none" stroke="black" d="M795.64,-694.29C795.64,-678.12 795.64,-660.01 795.64,-645.49"/>
<polygon fill="blue" stroke="black" points="799.14,-645.17 795.64,-635.17 792.14,-645.17 799.14,-645.17"/>
</g>
<!-- scipy -->
<g id="node3" class="node">
<title>scipy</title><style>.edge>path:hover{stroke-width:8}</style>
<polygon fill="#06ef63" stroke="black" points="664.64,-860.51 661.64,-864.51 640.64,-864.51 637.64,-860.51 610.64,-860.51 610.64,-824.51 664.64,-824.51 664.64,-860.51"/>
<text text-anchor="middle" x="637.64" y="-840.01" font-family="Helvetica,sans-Serif" font-size="10.00" fill="#000000">scipy</text>
</g>
<!-- numpy&#45;&gt;scipy -->
<g id="edge3" class="edge">
<title>numpy&#45;&gt;scipy</title><style>.edge>path:hover{stroke-width:8}</style>
<path fill="none" stroke="black" d="M637.64,-896.2C637.64,-888.49 637.64,-879.22 637.64,-870.62"/>
<polygon fill="blue" stroke="black" points="641.14,-870.61 637.64,-860.61 634.14,-870.61 641.14,-870.61"/>
</g>
<!-- soundfile -->
<g id="node4" class="node">
<title>soundfile</title><style>.edge>path:hover{stroke-width:8}</style>
<polygon fill="#4c75b3" stroke="black" points="423.14,-788.51 420.14,-792.51 399.14,-792.51 396.14,-788.51 362.14,-788.51 362.14,-752.51 423.14,-752.51 423.14,-788.51"/>
<text text-anchor="middle" x="392.64" y="-768.01" font-family="Helvetica,sans-Serif" font-size="10.00" fill="#ffffff">soundfile</text>
</g>
<!-- numpy&#45;&gt;soundfile -->
<g id="edge4" class="edge">
<title>numpy&#45;&gt;soundfile</title><style>.edge>path:hover{stroke-width:8}</style>
<path fill="none" stroke="black" d="M610.25,-901.03C585.88,-888.93 550.37,-868.72 525.64,-843.51"/>
<path fill="none" stroke="black" d="M525.64,-841.51C499.63,-814.98 461.4,-796.3 432.6,-784.95"/>
<polygon fill="blue" stroke="black" points="433.81,-781.67 423.22,-781.38 431.32,-788.21 433.81,-781.67"/>
</g>
<!-- wav_to_freq_autodetect -->
<g id="node5" class="node">
<title>wav_to_freq_autodetect</title><style>.edge>path:hover{stroke-width:8}</style>
<ellipse fill="#853399" stroke="black" cx="525.64" cy="-616.87" rx="56.64" ry="21.43"/>
<text text-anchor="middle" x="525.64" y="-619.87" font-family="Helvetica,sans-Serif" font-size="10.00" fill="#ffffff">wav_to_freq.</text>
<text text-anchor="middle" x="525.64" y="-608.87" font-family="Helvetica,sans-Serif" font-size="10.00" fill="#ffffff">autodetect</text>
</g>
<!-- numpy&#45;&gt;wav_to_freq_autodetect -->
<g id="edge5" class="edge">
<title>numpy&#45;&gt;wav_to_freq_autodetect</title><style>.edge>path:hover{stroke-width:8}</style>
<path fill="none" stroke="black" d="M487.64,-769.51C469.36,-737.73 524.31,-732.93 525.64,-696.29"/>
<path fill="none" stroke="black" d="M525.64,-694.29C526.2,-679.18 526.26,-662.38 526.15,-648.39"/>
<polygon fill="blue" stroke="black" points="529.65,-648.27 526.05,-638.31 522.65,-648.35 529.65,-648.27"/>
</g>
<!-- wav_to_freq_impact_io -->
<g id="node8" class="node">
<title>wav_to_freq_impact_io</title><style>.edge>path:hover{stroke-width:8}</style>
<ellipse fill="#9004b3" stroke="black" cx="567.64" cy="-538.44" rx="56.64" ry="21.43"/>
<text text-anchor="middle" x="567.64" y="-541.44" font-family="Helvetica,sans-Serif" font-size="10.00" fill="#ffffff">wav_to_freq.</text>
<text text-anchor="middle" x="567.64" y="-530.44" font-family="Helvetica,sans-Serif" font-size="10.00" fill="#ffffff">impact_io</text>
</g>
<!-- numpy&#45;&gt;wav_to_freq_impact_io -->
<g id="edge6" class="edge">
<title>numpy&#45;&gt;wav_to_freq_impact_io</title><style>.edge>path:hover{stroke-width:8}</style>
<path fill="none" stroke="black" d="M525.64,-841.51C499.62,-817.51 505.3,-802.19 487.64,-771.51"/>
<path fill="none" stroke="black" d="M487.64,-769.51C454.19,-711.36 383.11,-757.5 355.64,-696.29"/>
</g>
<!-- wav_to_freq_modal -->
<g id="node9" class="node">
<title>wav_to_freq_modal</title><style>.edge>path:hover{stroke-width:8}</style>
<ellipse fill="#911eae" stroke="black" cx="733.64" cy="-460.01" rx="56.64" ry="21.43"/>
<text text-anchor="middle" x="733.64" y="-463.01" font-family="Helvetica,sans-Serif" font-size="10.00" fill="#ffffff">wav_to_freq.</text>
<text text-anchor="middle" x="733.64" y="-452.01" font-family="Helvetica,sans-Serif" font-size="10.00" fill="#ffffff">modal</text>
</g>
<!-- numpy&#45;&gt;wav_to_freq_modal -->
<g id="edge7" class="edge">
<title>numpy&#45;&gt;wav_to_freq_modal</title><style>.edge>path:hover{stroke-width:8}</style>
<path fill="none" stroke="black" d="M733.64,-537.44C729.9,-522.68 729.51,-505.8 730.23,-491.66"/>
<polygon fill="blue" stroke="black" points="733.73,-491.69 730.95,-481.46 726.75,-491.19 733.73,-491.69"/>
</g>
<!-- wav_to_freq_reporting_modal -->
<g id="node14" class="node">
<title>wav_to_freq_reporting_modal</title><style>.edge>path:hover{stroke-width:8}</style>
<ellipse fill="#7e3d8f" stroke="black" cx="394.64" cy="-373.81" rx="56.64" ry="28.98"/>
<text text-anchor="middle" x="394.64" y="-382.31" font-family="Helvetica,sans-Serif" font-size="10.00" fill="#ffffff">wav_to_freq.</text>
<text text-anchor="middle" x="394.64" y="-371.31" font-family="Helvetica,sans-Serif" font-size="10.00" fill="#ffffff">reporting.</text>
<text text-anchor="middle" x="394.64" y="-360.31" font-family="Helvetica,sans-Serif" font-size="10.00" fill="#ffffff">modal</text>
</g>
<!-- numpy&#45;&gt;wav_to_freq_reporting_modal -->
<g id="edge8" class="edge">
<title>numpy&#45;&gt;wav_to_freq_reporting_modal</title><style>.edge>path:hover{stroke-width:8}</style>
<path fill="none" stroke="black" d="M662.33,-896.35C706.77,-863.24 795.64,-785.83 795.64,-696.29"/>
<path fill="none" stroke="black" d="M795.64,-694.29C799.88,-663.4 766.39,-666.55 753.64,-638.08 735.37,-597.25 744.64,-582.8 733.64,-539.44"/>
<path fill="none" stroke="black" d="M733.64,-537.44C720.92,-501.07 696.04,-507.27 667.64,-481.23 647.86,-463.08 648.25,-451.6 624.64,-438.8 558.66,-403.03 531.11,-425.75 459.64,-402.8 454.99,-401.31 450.21,-399.6 445.46,-397.79"/>
<polygon fill="blue" stroke="black" points="446.39,-394.39 435.8,-393.94 443.8,-400.89 446.39,-394.39"/>
</g>
<!-- numpy&#45;&gt;wav_to_freq_reporting_plots -->
<g id="edge9" class="edge">
<title>numpy&#45;&gt;wav_to_freq_reporting_plots</title><style>.edge>path:hover{stroke-width:8}</style>
<path fill="none" stroke="black" d="M795.64,-694.29C800.84,-663.27 825.77,-666.78 838.64,-638.08 856.92,-597.34 857.64,-584.09 857.64,-539.44 857.64,-539.44 857.64,-539.44 857.64,-459.01 857.64,-374.42 585.05,-314.74 458.19,-291.54"/>
<polygon fill="blue" stroke="black" points="458.67,-288.07 448.21,-289.74 457.43,-294.96 458.67,-288.07"/>
</g>
<!-- wav_to_freq_signal_utils -->
<g id="node19" class="node">
<title>wav_to_freq_signal_utils</title><style>.edge>path:hover{stroke-width:8}</style>
<ellipse fill="#a02fbc" stroke="black" cx="610.64" cy="-695.29" rx="56.64" ry="21.43"/>
<text text-anchor="middle" x="610.64" y="-698.29" font-family="Helvetica,sans-Serif" font-size="10.00" fill="#ffffff">wav_to_freq.</text>
<text text-anchor="middle" x="610.64" y="-687.29" font-family="Helvetica,sans-Serif" font-size="10.00" fill="#ffffff">signal_utils</text>
</g>
<!-- numpy&#45;&gt;wav_to_freq_signal_utils -->
<g id="edge10" class="edge">
<title>numpy&#45;&gt;wav_to_freq_signal_utils</title><style>.edge>path:hover{stroke-width:8}</style>
<path fill="none" stroke="black" d="M525.64,-841.51C490.37,-805.54 541.2,-752.13 578.13,-721.1"/>
<polygon fill="blue" stroke="black" points="580.71,-723.51 586.22,-714.46 576.27,-718.1 580.71,-723.51"/>
</g>
<!-- scipy&#45;&gt;wav_to_freq_autodetect -->
<g id="edge11" class="edge">
<title>scipy&#45;&gt;wav_to_freq_autodetect</title><style>.edge>path:hover{stroke-width:8}</style>
<path fill="none" stroke="black" d="M610.54,-824.74C575.21,-800.5 518.67,-752.37 525.64,-696.29"/>
</g>
<!-- scipy&#45;&gt;wav_to_freq_impact_io -->
<g id="edge12" class="edge">
<title>scipy&#45;&gt;wav_to_freq_impact_io</title><style>.edge>path:hover{stroke-width:8}</style>
<path fill="none" stroke="black" d="M695.64,-769.51C701.16,-702.34 718.26,-681.35 695.64,-617.87"/>
<path fill="none" stroke="black" d="M695.64,-615.87C682.85,-585.55 651.2,-566.5 622.57,-555"/>
<polygon fill="#06ef63" stroke="black" points="623.6,-551.65 613.01,-551.38 621.13,-558.19 623.6,-551.65"/>
</g>
<!-- scipy&#45;&gt;wav_to_freq_modal -->
<g id="edge13" class="edge">
<title>scipy&#45;&gt;wav_to_freq_modal</title><style>.edge>path:hover{stroke-width:8}</style>
<path fill="none" stroke="black" d="M695.64,-537.44C693.1,-520.08 701.04,-502.43 710.31,-488.47"/>
<polygon fill="#06ef63" stroke="black" points="713.19,-490.45 716.17,-480.29 707.5,-486.38 713.19,-490.45"/>
</g>
<!-- scipy&#45;&gt;wav_to_freq_reporting_modal -->
<g id="edge14" class="edge">
<title>scipy&#45;&gt;wav_to_freq_reporting_modal</title><style>.edge>path:hover{stroke-width:8}</style>
<path fill="none" stroke="black" d="M695.64,-615.87C682.44,-584.57 700.57,-573.05 695.64,-539.44"/>
<path fill="none" stroke="black" d="M695.64,-537.44C694.72,-531.16 615.46,-465.15 610.64,-461.01"/>
<path fill="none" stroke="black" d="M610.64,-459.01C556.31,-412.37 526.11,-429.46 459.64,-402.8 455.24,-401.04 450.69,-399.17 446.14,-397.26"/>
<polygon fill="#06ef63" stroke="black" points="447.4,-394 436.82,-393.34 444.68,-400.45 447.4,-394"/>
</g>
<!-- scipy&#45;&gt;wav_to_freq_reporting_plots -->
<g id="edge15" class="edge">
<title>scipy&#45;&gt;wav_to_freq_reporting_plots</title><style>.edge>path:hover{stroke-width:8}</style>
<path fill="none" stroke="black" d="M610.64,-459.01C582.25,-434.64 642.65,-394.21 610.64,-374.81"/>
<path fill="none" stroke="black" d="M610.64,-372.81C597.79,-365.01 603.67,-353.85 591.64,-344.82 552.73,-315.59 499.9,-299.38 458.75,-290.59"/>
<polygon fill="#06ef63" stroke="black" points="459.32,-287.14 448.82,-288.57 457.92,-294 459.32,-287.14"/>
</g>
<!-- scipy&#45;&gt;wav_to_freq_signal_utils -->
<g id="edge16" class="edge">
<title>scipy&#45;&gt;wav_to_freq_signal_utils</title><style>.edge>path:hover{stroke-width:8}</style>
<path fill="none" stroke="black" d="M662.12,-824.44C677.15,-811.86 693.86,-793.21 695.64,-771.51"/>
<path fill="none" stroke="black" d="M695.64,-769.51C697.59,-745.81 678.35,-728.07 657.7,-715.99"/>
<polygon fill="#06ef63" stroke="black" points="659.27,-712.86 648.81,-711.16 655.92,-719.01 659.27,-712.86"/>
</g>
<!-- soundfile&#45;&gt;wav_to_freq_impact_io -->
<g id="edge17" class="edge">
<title>soundfile&#45;&gt;wav_to_freq_impact_io</title><style>.edge>path:hover{stroke-width:8}</style>
<path fill="none" stroke="black" d="M383.36,-752.27C375.59,-737.57 364.39,-715.78 355.64,-696.29"/>
<path fill="none" stroke="black" d="M355.64,-694.29C341.74,-663.3 343.68,-649.66 355.64,-617.87"/>
<path fill="none" stroke="black" d="M355.64,-615.87C366.83,-586.14 449.1,-563.38 507.79,-550.71"/>
<polygon fill="#4c75b3" stroke="black" points="508.66,-554.1 517.72,-548.61 507.21,-547.25 508.66,-554.1"/>
</g>
<!-- wav_to_freq_autodetect&#45;&gt;wav_to_freq_impact_io -->
<g id="edge18" class="edge">
<title>wav_to_freq_autodetect&#45;&gt;wav_to_freq_impact_io</title><style>.edge>path:hover{stroke-width:8}</style>
<path fill="none" stroke="black" d="M536.68,-595.79C541.31,-587.36 546.78,-577.41 551.83,-568.22"/>
<polygon fill="#853399" stroke="black" points="554.93,-569.84 556.68,-559.39 548.8,-566.46 554.93,-569.84"/>
</g>
<!-- wav_to_freq_dev_check -->
<g id="node6" class="node">
<title>wav_to_freq_dev_check</title><style>.edge>path:hover{stroke-width:8}</style>
<ellipse fill="#7e3d8f" stroke="black" cx="328.64" cy="-21.21" rx="56.64" ry="21.43"/>
<text text-anchor="middle" x="328.64" y="-24.21" font-family="Helvetica,sans-Serif" font-size="10.00" fill="#ffffff">wav_to_freq.</text>
<text text-anchor="middle" x="328.64" y="-13.21" font-family="Helvetica,sans-Serif" font-size="10.00" fill="#ffffff">dev_check</text>
</g>
<!-- wav_to_freq_enums -->
<g id="node7" class="node">
<title>wav_to_freq_enums</title><style>.edge>path:hover{stroke-width:8}</style>
<ellipse fill="#b13bce" stroke="black" cx="440.64" cy="-695.29" rx="56.64" ry="21.43"/>
<text text-anchor="middle" x="440.64" y="-698.29" font-family="Helvetica,sans-Serif" font-size="10.00" fill="#ffffff">wav_to_freq.</text>
<text text-anchor="middle" x="440.64" y="-687.29" font-family="Helvetica,sans-Serif" font-size="10.00" fill="#ffffff">enums</text>
</g>
<!-- wav_to_freq_enums&#45;&gt;wav_to_freq_autodetect -->
<g id="edge19" class="edge">
<title>wav_to_freq_enums&#45;&gt;wav_to_freq_autodetect</title><style>.edge>path:hover{stroke-width:8}</style>
<path fill="none" stroke="black" d="M461.66,-675.4C472.28,-665.85 485.34,-654.11 496.88,-643.73"/>
<polygon fill="#b13bce" stroke="black" points="499.48,-646.1 504.58,-636.81 494.8,-640.89 499.48,-646.1"/>
</g>
<!-- wav_to_freq_enums&#45;&gt;wav_to_freq_impact_io -->
<g id="edge20" class="edge">
<title>wav_to_freq_enums&#45;&gt;wav_to_freq_impact_io</title><style>.edge>path:hover{stroke-width:8}</style>
<path fill="none" stroke="black" d="M402.22,-679.51C375.12,-666.46 345.33,-645.26 355.64,-617.87"/>
</g>
<!-- wav_to_freq_impact_io&#45;&gt;wav_to_freq_dev_check -->
<g id="edge21" class="edge">
<title>wav_to_freq_impact_io&#45;&gt;wav_to_freq_dev_check</title><style>.edge>path:hover{stroke-width:8}</style>
<path fill="none" stroke="black" d="M517.41,-528.65C463.73,-517.89 377.24,-496.58 309.64,-461.01"/>
<path fill="none" stroke="black" d="M309.64,-459.01C196.55,-399.5 108.7,-501.61 27.64,-402.8 -7.63,-359.8 44.16,-335.25 55.64,-280.83"/>
<path fill="none" stroke="black" d="M55.64,-278.83C60.27,-248.13 36.48,-244.6 27.64,-214.84 13,-165.51 -13.09,-147.27 8.64,-100.64"/>
<path fill="none" stroke="black" d="M8.64,-98.64C29.24,-52.25 175.45,-33.44 262.95,-26.27"/>
<polygon fill="#9004b3" stroke="black" points="263.36,-29.75 273.05,-25.47 262.81,-22.77 263.36,-29.75"/>
</g>
<!-- wav_to_freq_impact_io&#45;&gt;wav_to_freq_modal -->
<g id="edge22" class="edge">
<title>wav_to_freq_impact_io&#45;&gt;wav_to_freq_modal</title><style>.edge>path:hover{stroke-width:8}</style>
<path fill="none" stroke="black" d="M602.44,-521.42C627.87,-509.71 662.54,-493.75 689.85,-481.18"/>
<polygon fill="#9004b3" stroke="black" points="691.56,-484.24 699.18,-476.88 688.63,-477.89 691.56,-484.24"/>
</g>
<!-- wav_to_freq_reporting_context -->
<g id="node12" class="node">
<title>wav_to_freq_reporting_context</title><style>.edge>path:hover{stroke-width:8}</style>
<ellipse fill="#a731c4" stroke="black" cx="93.64" cy="-373.81" rx="56.64" ry="28.98"/>
<text text-anchor="middle" x="93.64" y="-382.31" font-family="Helvetica,sans-Serif" font-size="10.00" fill="#ffffff">wav_to_freq.</text>
<text text-anchor="middle" x="93.64" y="-371.31" font-family="Helvetica,sans-Serif" font-size="10.00" fill="#ffffff">reporting.</text>
<text text-anchor="middle" x="93.64" y="-360.31" font-family="Helvetica,sans-Serif" font-size="10.00" fill="#ffffff">context</text>
</g>
<!-- wav_to_freq_impact_io&#45;&gt;wav_to_freq_reporting_context -->
<g id="edge23" class="edge">
<title>wav_to_freq_impact_io&#45;&gt;wav_to_freq_reporting_context</title><style>.edge>path:hover{stroke-width:8}</style>
<path fill="none" stroke="black" d="M309.64,-459.01C246.27,-425.67 225.11,-429.46 158.64,-402.8 154.24,-401.04 149.69,-399.17 145.14,-397.26"/>
<polygon fill="#9004b3" stroke="black" points="146.4,-394 135.82,-393.34 143.68,-400.45 146.4,-394"/>
</g>
<!-- wav_to_freq_impact_io&#45;&gt;wav_to_freq_reporting_modal -->
<g id="edge24" class="edge">
<title>wav_to_freq_impact_io&#45;&gt;wav_to_freq_reporting_modal</title><style>.edge>path:hover{stroke-width:8}</style>
<path fill="none" stroke="black" d="M309.64,-459.01C282.76,-444.87 314.33,-419.4 346.35,-400.17"/>
<polygon fill="#9004b3" stroke="black" points="348.47,-402.99 355.34,-394.92 344.94,-396.94 348.47,-402.99"/>
</g>
<!-- wav_to_freq_impact_io&#45;&gt;wav_to_freq_reporting_plots -->
<g id="edge25" class="edge">
<title>wav_to_freq_impact_io&#45;&gt;wav_to_freq_reporting_plots</title><style>.edge>path:hover{stroke-width:8}</style>
<path fill="none" stroke="black" d="M309.64,-372.81C315.14,-347.33 334.12,-325.54 352.76,-309.58"/>
<polygon fill="#9004b3" stroke="black" points="355.16,-312.14 360.69,-303.1 350.73,-306.72 355.16,-312.14"/>
</g>
<!-- wav_to_freq_reporting_preprocess -->
<g id="node16" class="node">
<title>wav_to_freq_reporting_preprocess</title><style>.edge>path:hover{stroke-width:8}</style>
<ellipse fill="#772e8a" stroke="black" cx="93.64" cy="-185.84" rx="56.64" ry="28.98"/>
<text text-anchor="middle" x="93.64" y="-194.34" font-family="Helvetica,sans-Serif" font-size="10.00" fill="#ffffff">wav_to_freq.</text>
<text text-anchor="middle" x="93.64" y="-183.34" font-family="Helvetica,sans-Serif" font-size="10.00" fill="#ffffff">reporting.</text>
<text text-anchor="middle" x="93.64" y="-172.34" font-family="Helvetica,sans-Serif" font-size="10.00" fill="#ffffff">preprocess</text>
</g>
<!-- wav_to_freq_impact_io&#45;&gt;wav_to_freq_reporting_preprocess -->
<g id="edge26" class="edge">
<title>wav_to_freq_impact_io&#45;&gt;wav_to_freq_reporting_preprocess</title><style>.edge>path:hover{stroke-width:8}</style>
<path fill="none" stroke="black" d="M55.64,-278.83C59.64,-259.89 67.41,-239.91 74.9,-223.43"/>
<polygon fill="#9004b3" stroke="black" points="78.16,-224.71 79.24,-214.17 71.82,-221.74 78.16,-224.71"/>
</g>
<!-- wav_to_freq_reporting_reporting -->
<g id="node17" class="node">
<title>wav_to_freq_reporting_reporting</title><style>.edge>path:hover{stroke-width:8}</style>
<ellipse fill="#7e3091" stroke="black" cx="394.64" cy="-185.84" rx="56.64" ry="28.98"/>
<text text-anchor="middle" x="394.64" y="-194.34" font-family="Helvetica,sans-Serif" font-size="10.00" fill="#ffffff">wav_to_freq.</text>
<text text-anchor="middle" x="394.64" y="-183.34" font-family="Helvetica,sans-Serif" font-size="10.00" fill="#ffffff">reporting.</text>
<text text-anchor="middle" x="394.64" y="-172.34" font-family="Helvetica,sans-Serif" font-size="10.00" fill="#ffffff">reporting</text>
</g>
<!-- wav_to_freq_impact_io&#45;&gt;wav_to_freq_reporting_reporting -->
<g id="edge27" class="edge">
<title>wav_to_freq_impact_io&#45;&gt;wav_to_freq_reporting_reporting</title><style>.edge>path:hover{stroke-width:8}</style>
<path fill="none" stroke="black" d="M309.64,-459.01C276.52,-441.59 301.76,-411.39 309.64,-374.81"/>
<path fill="none" stroke="black" d="M309.64,-372.81C318.26,-332.85 303.53,-321.25 309.64,-280.83"/>
</g>
<!-- wav_to_freq_modal&#45;&gt;wav_to_freq_dev_check -->
<g id="edge28" class="edge">
<title>wav_to_freq_modal&#45;&gt;wav_to_freq_dev_check</title><style>.edge>path:hover{stroke-width:8}</style>
<path fill="none" stroke="black" d="M648.64,-278.83C598.23,-217.76 662.67,-178.58 648.64,-100.64"/>
</g>
<!-- wav_to_freq_modal&#45;&gt;wav_to_freq_reporting_plots -->
<g id="edge29" class="edge">
<title>wav_to_freq_modal&#45;&gt;wav_to_freq_reporting_plots</title><style>.edge>path:hover{stroke-width:8}</style>
<path fill="none" stroke="black" d="M698.79,-442.97C678.92,-432.94 654.17,-418.89 634.64,-402.8 622,-392.38 624.73,-383.19 610.64,-374.81"/>
</g>
<!-- wav_to_freq_modal&#45;&gt;wav_to_freq_reporting_reporting -->
<g id="edge30" class="edge">
<title>wav_to_freq_modal&#45;&gt;wav_to_freq_reporting_reporting</title><style>.edge>path:hover{stroke-width:8}</style>
<path fill="none" stroke="black" d="M724.37,-438.83C709.04,-405.66 677.26,-337.6 648.64,-280.83"/>
<path fill="none" stroke="black" d="M648.64,-278.83C602.45,-222.87 519.32,-200.95 460.77,-192.37"/>
<polygon fill="#911eae" stroke="black" points="460.89,-188.85 450.51,-190.96 459.94,-195.79 460.89,-188.85"/>
</g>
<!-- wav_to_freq_other_utils -->
<g id="node10" class="node">
<title>wav_to_freq_other_utils</title><style>.edge>path:hover{stroke-width:8}</style>
<ellipse fill="#b13bce" stroke="black" cx="525.64" cy="-373.81" rx="56.64" ry="21.43"/>
<text text-anchor="middle" x="525.64" y="-376.81" font-family="Helvetica,sans-Serif" font-size="10.00" fill="#ffffff">wav_to_freq.</text>
<text text-anchor="middle" x="525.64" y="-365.81" font-family="Helvetica,sans-Serif" font-size="10.00" fill="#ffffff">other_utils</text>
</g>
<!-- wav_to_freq_other_utils&#45;&gt;wav_to_freq_reporting_preprocess -->
<g id="edge31" class="edge">
<title>wav_to_freq_other_utils&#45;&gt;wav_to_freq_reporting_preprocess</title><style>.edge>path:hover{stroke-width:8}</style>
<path fill="none" stroke="black" d="M491.71,-356.74C481.84,-352.46 470.94,-348.12 460.64,-344.82 389.18,-321.87 362.67,-342.59 295.64,-308.82 278.77,-300.32 279.21,-291.54 263.64,-280.83"/>
</g>
<!-- wav_to_freq_other_utils&#45;&gt;wav_to_freq_reporting_reporting -->
<g id="edge32" class="edge">
<title>wav_to_freq_other_utils&#45;&gt;wav_to_freq_reporting_reporting</title><style>.edge>path:hover{stroke-width:8}</style>
<path fill="none" stroke="black" d="M491.25,-356.93C481.47,-352.71 470.73,-348.35 460.64,-344.82 391.84,-320.76 298.74,-352.9 309.64,-280.83"/>
</g>
<!-- wav_to_freq_reporting -->
<g id="node11" class="node">
<title>wav_to_freq_reporting</title><style>.edge>path:hover{stroke-width:8}</style>
<ellipse fill="#c022e7" stroke="black" cx="328.64" cy="-99.64" rx="56.64" ry="21.43"/>
<text text-anchor="middle" x="328.64" y="-102.64" font-family="Helvetica,sans-Serif" font-size="10.00" fill="#ffffff">wav_to_freq.</text>
<text text-anchor="middle" x="328.64" y="-91.64" font-family="Helvetica,sans-Serif" font-size="10.00" fill="#ffffff">reporting</text>
</g>
<!-- wav_to_freq_reporting&#45;&gt;wav_to_freq_dev_check -->
<g id="edge33" class="edge">
<title>wav_to_freq_reporting&#45;&gt;wav_to_freq_dev_check</title><style>.edge>path:hover{stroke-width:8}</style>
<path fill="none" stroke="black" d="M328.64,-78.16C328.64,-70.3 328.64,-61.16 328.64,-52.57"/>
<polygon fill="#c022e7" stroke="black" points="332.14,-52.49 328.64,-42.49 325.14,-52.49 332.14,-52.49"/>
</g>
<!-- wav_to_freq_reporting_context&#45;&gt;wav_to_freq_reporting_preprocess -->
<g id="edge34" class="edge">
<title>wav_to_freq_reporting_context&#45;&gt;wav_to_freq_reporting_preprocess</title><style>.edge>path:hover{stroke-width:8}</style>
<path fill="none" stroke="black" d="M93.64,-344.57C93.64,-312.8 93.64,-261.01 93.64,-225.51"/>
<polygon fill="#a731c4" stroke="black" points="97.14,-225.05 93.64,-215.05 90.14,-225.05 97.14,-225.05"/>
</g>
<!-- wav_to_freq_reporting_sections -->
<g id="node18" class="node">
<title>wav_to_freq_reporting_sections</title><style>.edge>path:hover{stroke-width:8}</style>
<ellipse fill="#9238a8" stroke="black" cx="178.64" cy="-279.83" rx="56.64" ry="28.98"/>
<text text-anchor="middle" x="178.64" y="-288.33" font-family="Helvetica,sans-Serif" font-size="10.00" fill="#ffffff">wav_to_freq.</text>
<text text-anchor="middle" x="178.64" y="-277.33" font-family="Helvetica,sans-Serif" font-size="10.00" fill="#ffffff">reporting.</text>
<text text-anchor="middle" x="178.64" y="-266.33" font-family="Helvetica,sans-Serif" font-size="10.00" fill="#ffffff">sections</text>
</g>
<!-- wav_to_freq_reporting_context&#45;&gt;wav_to_freq_reporting_sections -->
<g id="edge35" class="edge">
<title>wav_to_freq_reporting_context&#45;&gt;wav_to_freq_reporting_sections</title><style>.edge>path:hover{stroke-width:8}</style>
<path fill="none" stroke="black" d="M117.32,-347.19C126.9,-336.82 138.08,-324.73 148.25,-313.72"/>
<polygon fill="#a731c4" stroke="black" points="150.88,-316.03 155.09,-306.31 145.74,-311.28 150.88,-316.03"/>
</g>
<!-- wav_to_freq_reporting_markdown -->
<g id="node13" class="node">
<title>wav_to_freq_reporting_markdown</title><style>.edge>path:hover{stroke-width:8}</style>
<ellipse fill="#b82fdb" stroke="black" cx="224.64" cy="-373.81" rx="56.64" ry="28.98"/>
<text text-anchor="middle" x="224.64" y="-382.31" font-family="Helvetica,sans-Serif" font-size="10.00" fill="#ffffff">wav_to_freq.</text>
<text text-anchor="middle" x="224.64" y="-371.31" font-family="Helvetica,sans-Serif" font-size="10.00" fill="#ffffff">reporting.</text>
<text text-anchor="middle" x="224.64" y="-360.31" font-family="Helvetica,sans-Serif" font-size="10.00" fill="#ffffff">markdown</text>
</g>
<!-- wav_to_freq_reporting_markdown&#45;&gt;wav_to_freq_reporting_preprocess -->
<g id="edge36" class="edge">
<title>wav_to_freq_reporting_markdown&#45;&gt;wav_to_freq_reporting_preprocess</title><style>.edge>path:hover{stroke-width:8}</style>
<path fill="none" stroke="black" d="M249.12,-347.43C267.31,-325.79 285.51,-295.87 263.64,-280.83"/>
<path fill="none" stroke="black" d="M263.64,-278.83C251.26,-270.3 256.26,-260.38 244.64,-250.84 218.06,-229 182.93,-213.52 153.24,-203.26"/>
<polygon fill="#b82fdb" stroke="black" points="153.99,-199.82 143.4,-199.98 151.78,-206.46 153.99,-199.82"/>
</g>
<!-- wav_to_freq_reporting_markdown&#45;&gt;wav_to_freq_reporting_reporting -->
<g id="edge37" class="edge">
<title>wav_to_freq_reporting_markdown&#45;&gt;wav_to_freq_reporting_reporting</title><style>.edge>path:hover{stroke-width:8}</style>
<path fill="none" stroke="black" d="M259.78,-350.75C281.16,-334.55 305.19,-310.28 309.64,-280.83"/>
<path fill="none" stroke="black" d="M309.64,-278.83C313.56,-252.94 332.6,-231.06 351.66,-215.14"/>
<polygon fill="#b82fdb" stroke="black" points="353.86,-217.86 359.51,-208.9 349.5,-212.38 353.86,-217.86"/>
</g>
<!-- wav_to_freq_reporting_markdown&#45;&gt;wav_to_freq_reporting_sections -->
<g id="edge38" class="edge">
<title>wav_to_freq_reporting_markdown&#45;&gt;wav_to_freq_reporting_sections</title><style>.edge>path:hover{stroke-width:8}</style>
<path fill="none" stroke="black" d="M210.84,-345.21C206.44,-336.4 201.49,-326.51 196.82,-317.18"/>
<polygon fill="#b82fdb" stroke="black" points="199.88,-315.47 192.28,-308.09 193.62,-318.6 199.88,-315.47"/>
</g>
<!-- wav_to_freq_reporting_plots&#45;&gt;wav_to_freq_reporting_preprocess -->
<g id="edge39" class="edge">
<title>wav_to_freq_reporting_plots&#45;&gt;wav_to_freq_reporting_preprocess</title><style>.edge>path:hover{stroke-width:8}</style>
<path fill="none" stroke="black" d="M346.62,-264.15C293.54,-247.93 208.07,-221.81 151.39,-204.49"/>
<polygon fill="#7d2493" stroke="black" points="152.09,-201.04 141.5,-201.47 150.04,-207.74 152.09,-201.04"/>
</g>
<!-- wav_to_freq_reporting_plots&#45;&gt;wav_to_freq_reporting_reporting -->
<g id="edge40" class="edge">
<title>wav_to_freq_reporting_plots&#45;&gt;wav_to_freq_reporting_reporting</title><style>.edge>path:hover{stroke-width:8}</style>
<path fill="none" stroke="black" d="M394.64,-250.73C394.64,-242.69 394.64,-233.79 394.64,-225.25"/>
<polygon fill="#7d2493" stroke="black" points="398.14,-225.09 394.64,-215.09 391.14,-225.09 398.14,-225.09"/>
</g>
<!-- wav_to_freq_reporting_preprocess&#45;&gt;wav_to_freq_dev_check -->
<g id="edge41" class="edge">
<title>wav_to_freq_reporting_preprocess&#45;&gt;wav_to_freq_dev_check</title><style>.edge>path:hover{stroke-width:8}</style>
<path fill="none" stroke="black" d="M51.81,-166.16C24.48,-151 -3.99,-127.75 8.64,-100.64"/>
</g>
<!-- wav_to_freq_reporting_reporting&#45;&gt;wav_to_freq_dev_check -->
<g id="edge42" class="edge">
<title>wav_to_freq_reporting_reporting&#45;&gt;wav_to_freq_dev_check</title><style>.edge>path:hover{stroke-width:8}</style>
<path fill="none" stroke="black" d="M449.19,-178.05C526.03,-166.98 656.09,-142.02 648.64,-100.64"/>
<path fill="none" stroke="black" d="M648.64,-98.64C639.58,-48.23 486.17,-30.94 395.11,-25.11"/>
<polygon fill="#7e3091" stroke="black" points="395.06,-21.6 384.87,-24.48 394.64,-28.59 395.06,-21.6"/>
</g>
<!-- wav_to_freq_reporting_sections&#45;&gt;wav_to_freq_reporting_preprocess -->
<g id="edge43" class="edge">
<title>wav_to_freq_reporting_sections&#45;&gt;wav_to_freq_reporting_preprocess</title><style>.edge>path:hover{stroke-width:8}</style>
<path fill="none" stroke="black" d="M154.97,-253.2C145.39,-242.84 134.21,-230.74 124.04,-219.74"/>
<polygon fill="#9238a8" stroke="black" points="126.55,-217.3 117.19,-212.33 121.41,-222.05 126.55,-217.3"/>
</g>
<!-- wav_to_freq_signal_utils&#45;&gt;wav_to_freq_autodetect -->
<g id="edge44" class="edge">
<title>wav_to_freq_signal_utils&#45;&gt;wav_to_freq_autodetect</title><style>.edge>path:hover{stroke-width:8}</style>
<path fill="none" stroke="black" d="M589.63,-675.4C579.01,-665.85 565.95,-654.11 554.41,-643.73"/>
<polygon fill="#a02fbc" stroke="black" points="556.48,-640.89 546.71,-636.81 551.8,-646.1 556.48,-640.89"/>
</g>
<!-- wav_to_freq_signal_utils&#45;&gt;wav_to_freq_impact_io -->
<g id="edge45" class="edge">
<title>wav_to_freq_signal_utils&#45;&gt;wav_to_freq_impact_io</title><style>.edge>path:hover{stroke-width:8}</style>
<path fill="none" stroke="black" d="M608.02,-673.96C605.12,-653.8 599.76,-622.17 591.64,-595.65 588.89,-586.66 585.17,-577.15 581.48,-568.57"/>
<polygon fill="#a02fbc" stroke="black" points="584.64,-567.06 577.37,-559.35 578.24,-569.91 584.64,-567.06"/>
</g>
</g>
</svg>
